<svg xmlns="http://www.w3.org/2000/svg" viewBox="0 0 128 128">
  <path d="M101.6 30H34.4C29.7608 30 26 33.8451 26 38.5882V94.4118C26 99.1549 29.7608 103 34.4 103H101.6C106.239 103 110 99.1549 110 94.4118V38.5882C110 33.8451 106.239 30 101.6 30Z" stroke="white" stroke-width="3" fill="none"/>
  <path d="M109 37C109 33.134 105.284 30 100.7 30H67.5H34.3C29.716 30 26 33.134 26 37C26 40.866 29.716 44 34.3 44H67.5H100.7C105.284 44 109 40.866 109 37Z" stroke="white" stroke-width="3" fill="none"/>
  <path d="M38 41C40.2091 41 42 39.2091 42 37C42 34.7909 40.2091 33 38 33C35.7909 33 34 34.7909 34 37C34 39.2091 35.7909 41 38 41Z" fill="#FF6347"/>
  <path d="M53 41C55.2091 41 57 39.2091 57 37C57 34.7909 55.2091 33 53 33C50.7909 33 49 34.7909 49 37C49 39.2091 50.7909 41 53 41Z" fill="#32CD32"/>
  <path d="M68 41C70.2091 41 72 39.2091 72 37C72 34.7909 70.2091 33 68 33C65.7909 33 64 34.7909 64 37C64 39.2091 65.7909 41 68 41Z" fill="#FFD700"/>
  <path d="M40 58 L96 114 M96 58 L40 114"
        stroke="#fff"
        stroke-width="12"
        stroke-linecap="round" />
</svg>
